# xmcd
#
# Track frame offsets:
# 150
# 15077
# 32744
# 46925
# 57912
# 71944
# 83549
# 97035
# 106053
# 127791
# 162016
# 177337
# 190074
# 205082
# 215569
# 223625
# 239715
# 251526
# 270856
# 282330
# 296170
# 313699
# 330361
#
# Disc length: 4438 seconds
#
# Revision: 0
# Processed by: cddbd v1.5.1PL0 Copyright (c) Steve Scherf et al.
# Submitted via: Audion 3.0.2 (http://www.panic.com/audion/)
#
DISCID=43115417
DTITLE=Conmen - Best Of
DYEAR=1900
DGENRE=
TTITLE0=Holidays in Britain
TTITLE1=Neurotics
TTITLE2=Franekfurtz
TTITLE3=Latin
TTITLE4=Babble and the devil
TTITLE5=Big city crime
TTITLE6=Ghetto of Harlem
TTITLE7=Instrumental 1
TTITLE8=Heaven
TTITLE9=Green love
TTITLE10=Live
TTITLE11=Russia
TTITLE12=Lovely boy
TTITLE13=She wants love
TTITLE14=Instrumental 2
TTITLE15=My sweet Susan
TTITLE16=Jazzi feelin'
TTITLE17=Silent voices
TTITLE18=You can choose
TTITLE19=Paula
TTITLE20=For love
TTITLE21=Sonntag
TTITLE22=Mississippi
EXTD=
EXTT0=
EXTT1=
EXTT2=
EXTT3=
EXTT4=
EXTT5=
EXTT6=
EXTT7=
EXTT8=
EXTT9=
EXTT10=
EXTT11=
EXTT12=
EXTT13=
EXTT14=
EXTT15=
EXTT16=
EXTT17=
EXTT18=
EXTT19=
EXTT20=
EXTT21=
EXTT22=
PLAYORDER=
